<svg xmlns="http://www.w3.org/2000/svg" viewBox="0 0 141.45 160" fill="#b6000e">
  <path class="charting-path-1 animat-roominnupq2" d="M90.13,0a3,3,0,0,1,3,3V157a3,3,0,0,1-6,0V3A3,3,0,0,1,90.13,0Z"></path>
  <path class="charting-path-2 animat-slideinup2" d="M90.13,24a11,11,0,0,1,11,11V73.1a11,11,0,0,1-22,0V35A11,11,0,0,1,90.13,24Z" style="transform-origin: 0px 0px 0px;" data-svg-origin="90.12999725341797 24" transform="matrix(1,0,0,1,0,0)"></path>
  <path class="charting-path-1 animat-roominnupq1" d="M51.32,0a3,3,0,0,1,3,3V157a3,3,0,0,1-6,0V3A3,3,0,0,1,51.32,0Z"></path>
  <path class="charting-path-2 animat-slideinup1" d="M51.32,64a11,11,0,0,1,11,11v28.1a11,11,0,0,1-22,0V75A11,11,0,0,1,51.32,64Z" style="transform-origin: 0px 0px 0px;" data-svg-origin="51.32000160217285 64" transform="matrix(1,0,0,1,0,0)"></path>
  <path class="charting-path-1 animat-roominnupq3" d="M129,0a3,3,0,0,1,3,3V157a3,3,0,0,1-6,0V3A3,3,0,0,1,129,0Z"></path>
  <path class="charting-path-2 animat-slideinup3" d="M129,34a11,11,0,0,1,11,11v68.1a11,11,0,0,1-22,0V45A11,11,0,0,1,129,34Z" style="transform-origin: 0px 0px 0px;" data-svg-origin="129 34" transform="matrix(1,0,0,1,0,0)"></path>
  <path class="charting-path-1 animat-roominnupq" d="M12.5,0a3,3,0,0,1,3,3V157a3,3,0,0,1-6,0V3A3,3,0,0,1,12.5,0Z" style="transform-origin: 0px 0px 0px;"></path>
  <path class="charting-path-2 animat-slideinup" d="M12.5,34a11,11,0,0,1,11,11v68.1a11,11,0,0,1-22,0V45A11,11,0,0,1,12.5,34Z" style="transform-origin: 0px 0px 0px;" data-svg-origin="12.500000953674316 34" transform="matrix(1,0,0,1,0,0)"></path>
</svg>