<svg version="1.1" id="Layer_1" xmlns="http://www.w3.org/2000/svg" xmlns:xlink="http://www.w3.org/1999/xlink" x="0px" y="0px" viewBox="0 0 182.1 205.2" style="enable-background:new 0 0 182.1 205.2;" xml:space="preserve">
<path class="sec-path-1" d="M165,138.7l14.3,40.2c1.1,3.3-0.6,6.3-3.8,6.8l-114.3,17c-3.2,0.5-6.7-1.8-7.9-5L2.9,52.3
              c-1.1-3.3,0.6-6.3,3.8-6.8L23,44.1"></path>
  <path class="sec-path-2" d="M152.1,165.2l-76.8,11.4c-3.2,0.5-6.7-1.8-7.9-5L16.9,26.3c-1.1-3.3,1.1-6.3,4.3-6.8l113.8-17
              c3.2-0.5,6.7,1.8,7.9,5l35.9,103.1L152.1,165.2z"></path>
  <path class="sec-path-2" d="M148,164l-15-43.2c-1.1-3.3,2.8-6.3,6-6.8l37.4-5.9"></path>
  <path class="sec-path-3 animat-rotate3dxin2" d="M52.9,58.9l79.9-13" style="opacity: 1; transform-origin: 0px 0px 0px;" data-svg-origin="132.8000030517578 45.900001525878906" transform="matrix(1,0,0,1,0,0)"></path>
  <path class="sec-path-3 animat-rotate3dxin1" d="M47.9,42.9l79.9-13" style="opacity: 1; transform-origin: 0px 0px 0px;" data-svg-origin="127.80000305175781 29.900001525878906" transform="matrix(1,0,0,1,0,0)"></path>
</svg>