<svg version="1.1" id="Layer_1" xmlns="http://www.w3.org/2000/svg" xmlns:xlink="http://www.w3.org/1999/xlink" x="0px" y="0px" viewBox="0 0 167 170" style="enable-background:new 0 0 167 170;" xml:space="preserve">
  <path class="transcripts-path-1" d="M142.2,2.5c11,0,22.2,9,22.2,20v60h-32"></path>
  <path class="transcripts-path-1" d="M145.7,2.5H8.5c-3.3,0-6,2.7-6,6v153c0,3.3,2.7,6,6,6h118c3.3,0,6-2.7,6-6c0,0,0-39.2,0-77.3
                  c0-18.5,0-56.3,0-56.3c0-11.1,1-25.3,13.2-25.3"></path>
  <path class="transcripts-path-2 animat-rotate3d2" d="M24.7,60.5h78.9" style="transform-origin: 0px 0px 0px;" data-svg-origin="24.700000762939453 60.5" transform="matrix(1,0,0,1,0,0)"></path>
  <path class="transcripts-path-2 animat-rotate3d1" d="M24.7,40.5h38.9" style="transform-origin: 0px 0px 0px;" data-svg-origin="24.700000762939453 40.5" transform="matrix(1,0,0,1,0,0)"></path>
  <path class="transcripts-path-2 animat-rotate3d3" d="M24.7,80.5h58.9" style="transform-origin: 0px 0px 0px;" data-svg-origin="24.700000762939453 80.5" transform="matrix(1,0,0,1,0,0)"></path>
</svg>