<svg class="rotate901" version="1.1" id="Layer_1" xmlns="http://www.w3.org/2000/svg" xmlns:xlink="http://www.w3.org/1999/xlink" x="0px" y="0px" viewBox="0 0 193.1 193.1" style="enable-background:new 0 0 193.1 193.1;" xml:space="preserve">
<linearGradient id="SVGID1" gradientUnits="userSpaceOnUse" x1="91.9062" y1="99.5776" x2="191.2501" y2="86.5776">
<stop offset="0" style="stop-color:#6dc7b5"></stop>
<stop offset="1" style="stop-color:#292A33"></stop>
</linearGradient>
<path class="analyst-path-1 non-move" d="M148.8,96.6c0,28.8-23.4,52.2-52.2,52.2c-28.8,0-52.2-23.4-52.2-52.2c0-28.8,23.4-52.2,52.2-52.2"></path>
<path class="analyst-path-2" d="M96.2,84.2c7.2,0,12.9,5.8,12.9,12.9c0,7.2-5.8,12.9-12.9,12.9c-7.1,0-12.9-5.8-12.9-12.9
  C83.2,90,89,84.2,96.2,84.2z"></path>
<linearGradient id="SVGID2" gradientUnits="userSpaceOnUse" x1="0" y1="96.5744" x2="193.1492" y2="96.5744">
<stop offset="0" style="stop-color:#6dc7b5"></stop>
<stop offset="1" style="stop-color:#292A33"></stop>
</linearGradient>
<path class="value non-move" fill="none" stroke="url(#SVGID1)" stroke-width="4" d="M190.6,96.6c0,52-42.1,94.1-94.1,94.1c-52,0-94.1-42.1-94.1-94.1c0-52,42.1-94.1,94.1-94.1"></path>
<path class="value" fill="none" stroke="url(#SVGID2)" stroke-width="4" d="M148.8,96.6c0,28.8-23.4,52.2-52.2,52.2c-28.8,0-52.2-23.4-52.2-52.2c0-28.8,23.4-52.2,52.2-52.2"></path>
<g class="rotatenoneg">
<path class="analyst-path-4 rotate90 rotate90gf" d="M147.2,14.1c1.4,0.8,1.9,2.7,1.1,4.1l-42,69c-0.8,1.4-2.7,1.9-4.1,1.1c-1.4-0.8-1.9-2.7-1.1-4.1l42-69
  C144,13.7,145.8,13.2,147.2,14.1z" data-svg-origin="100.71820831298828 88.68179321289062" transform="matrix(1,0,0,1,0,0)" style="transform-origin: 0px 0px 0px;"></path>
</g>
</svg>